<svg width="20" height="20" viewBox="0 0 20 20" fill="none" xmlns="http://www.w3.org/2000/svg">
<path d="M9.99487 5.83029V17.4909" stroke="#155DFC" stroke-width="1.6658" stroke-linecap="round" stroke-linejoin="round"/>
<path d="M2.49867 14.9922C2.27777 14.9922 2.06592 14.9045 1.90972 14.7483C1.75352 14.5921 1.66577 14.3802 1.66577 14.1593V3.33162C1.66577 3.11072 1.75352 2.89887 1.90972 2.74267C2.06592 2.58647 2.27777 2.49872 2.49867 2.49872H6.66318C7.54678 2.49872 8.39419 2.84973 9.01898 3.47452C9.64378 4.09932 9.99479 4.94673 9.99479 5.83033C9.99479 4.94673 10.3458 4.09932 10.9706 3.47452C11.5954 2.84973 12.4428 2.49872 13.3264 2.49872H17.4909C17.7118 2.49872 17.9237 2.58647 18.0799 2.74267C18.2361 2.89887 18.3238 3.11072 18.3238 3.33162V14.1593C18.3238 14.3802 18.2361 14.5921 18.0799 14.7483C17.9237 14.9045 17.7118 14.9922 17.4909 14.9922H12.4935C11.8308 14.9922 11.1952 15.2555 10.7266 15.7241C10.258 16.1927 9.99479 16.8283 9.99479 17.4909C9.99479 16.8283 9.73153 16.1927 9.26294 15.7241C8.79434 15.2555 8.15878 14.9922 7.49608 14.9922H2.49867Z" stroke="#155DFC" stroke-width="1.6658" stroke-linecap="round" stroke-linejoin="round"/>
</svg>
