<svg width="20" height="20" viewBox="0 0 20 20" fill="none" xmlns="http://www.w3.org/2000/svg">
<g clip-path="url(#clip0_1_975)">
<path d="M9.99481 5.83032V17.4909" stroke="#155DFC" stroke-width="1.6658" stroke-linecap="round" stroke-linejoin="round"/>
<path d="M2.49873 14.9922C2.27784 14.9922 2.06598 14.9045 1.90978 14.7483C1.75358 14.5921 1.66583 14.3802 1.66583 14.1593V3.33162C1.66583 3.11072 1.75358 2.89887 1.90978 2.74267C2.06598 2.58647 2.27784 2.49872 2.49873 2.49872H6.66324C7.54684 2.49872 8.39425 2.84973 9.01905 3.47452C9.64384 4.09932 9.99485 4.94673 9.99485 5.83033C9.99485 4.94673 10.3459 4.09932 10.9707 3.47452C11.5955 2.84973 12.4429 2.49872 13.3265 2.49872H17.491C17.7119 2.49872 17.9237 2.58647 18.0799 2.74267C18.2361 2.89887 18.3239 3.11072 18.3239 3.33162V14.1593C18.3239 14.3802 18.2361 14.5921 18.0799 14.7483C17.9237 14.9045 17.7119 14.9922 17.491 14.9922H12.4936C11.8309 14.9922 11.1953 15.2555 10.7267 15.7241C10.2581 16.1927 9.99485 16.8283 9.99485 17.4909C9.99485 16.8283 9.73159 16.1927 9.263 15.7241C8.7944 15.2555 8.15884 14.9922 7.49614 14.9922H2.49873Z" stroke="#155DFC" stroke-width="1.6658" stroke-linecap="round" stroke-linejoin="round"/>
</g>
<defs>
<clipPath id="clip0_1_975">
<rect width="19.9896" height="19.9896" fill="white"/>
</clipPath>
</defs>
</svg>
