<svg width="16" height="16" viewBox="0 0 16 16" fill="none" xmlns="http://www.w3.org/2000/svg">
<path d="M9.999 13.9986V8.66583C9.999 8.48903 9.92877 8.31948 9.80376 8.19447C9.67875 8.06946 9.50919 7.99923 9.3324 7.99923H6.66599C6.4892 7.99923 6.31965 8.06946 6.19463 8.19447C6.06962 8.31948 5.99939 8.48903 5.99939 8.66583V13.9986" stroke="#155DFC" stroke-width="1.3332" stroke-linecap="round" stroke-linejoin="round"/>
<path d="M1.99976 6.66602C1.99971 6.47208 2.04197 6.28047 2.1236 6.10455C2.20523 5.92863 2.32426 5.77264 2.47238 5.64745L7.13859 1.64851C7.37923 1.44513 7.68411 1.33355 7.99917 1.33355C8.31424 1.33355 8.61912 1.44513 8.85976 1.64851L13.526 5.64745C13.6741 5.77264 13.7931 5.92863 13.8747 6.10455C13.9564 6.28047 13.9986 6.47208 13.9986 6.66602V12.6654C13.9986 13.019 13.8581 13.3581 13.6081 13.6082C13.3581 13.8582 13.019 13.9986 12.6654 13.9986H3.33296C2.97937 13.9986 2.64027 13.8582 2.39024 13.6082C2.14022 13.3581 1.99976 13.019 1.99976 12.6654V6.66602Z" stroke="#155DFC" stroke-width="1.3332" stroke-linecap="round" stroke-linejoin="round"/>
</svg>
