<svg width="48" height="48" viewBox="0 0 48 48" fill="none" xmlns="http://www.w3.org/2000/svg">
<path d="M0 14C0 6.26801 6.26801 0 14 0H33.9785C41.7105 0 47.9785 6.26801 47.9785 14V33.9785C47.9785 41.7105 41.7105 47.9785 33.9785 47.9785H14C6.26801 47.9785 0 41.7105 0 33.9785V14Z" fill="#155DFC"/>
<path d="M23.9893 18.9897V32.9884" stroke="white" strokeWidth="1.99981" strokeLinecap="round" strokeLinejoin="round"/>
<path d="M14.9901 29.9888C14.7249 29.9888 14.4706 29.8834 14.2831 29.6959C14.0956 29.5084 13.9902 29.2541 13.9902 28.9889V15.9901C13.9902 15.7249 14.0956 15.4706 14.2831 15.2831C14.4706 15.0956 14.7249 14.9902 14.9901 14.9902H19.9896C21.0504 14.9902 22.0677 15.4116 22.8178 16.1617C23.5679 16.9118 23.9893 17.9291 23.9893 18.9898C23.9893 17.9291 24.4106 16.9118 25.1607 16.1617C25.9108 15.4116 26.9281 14.9902 27.9889 14.9902H32.9884C33.2536 14.9902 33.5079 15.0956 33.6954 15.2831C33.8829 15.4706 33.9883 15.7249 33.9883 15.9901V28.9889C33.9883 29.2541 33.8829 29.5084 33.6954 29.6959C33.5079 29.8834 33.2536 29.9888 32.9884 29.9888H26.989C26.1934 29.9888 25.4304 30.3048 24.8679 30.8674C24.3053 31.4299 23.9893 32.1929 23.9893 32.9885C23.9893 32.1929 23.6732 31.4299 23.1107 30.8674C22.5481 30.3048 21.7851 29.9888 20.9895 29.9888H14.9901Z" stroke="white" strokeWidth="1.99981" strokeLinecap="round" strokeLinejoin="round"/>
</svg>
