<svg width="16" height="16" viewBox="0 0 16 16" fill="none" xmlns="http://www.w3.org/2000/svg">
<g clip-path="url(#clip0_5_1166)">
<path d="M6.62403 10.3323C6.56452 10.1016 6.44428 9.89111 6.27581 9.72265C6.10735 9.55418 5.89682 9.43394 5.66613 9.37442L1.57652 8.31986C1.50675 8.30006 1.44534 8.25803 1.40161 8.20017C1.35789 8.1423 1.33423 8.07175 1.33423 7.99923C1.33423 7.9267 1.35789 7.85615 1.40161 7.79828C1.44534 7.74042 1.50675 7.69839 1.57652 7.67859L5.66613 6.62336C5.89674 6.5639 6.10721 6.44376 6.27567 6.27542C6.44413 6.10708 6.56442 5.89669 6.62403 5.66612L7.6786 1.57651C7.6982 1.50647 7.74018 1.44475 7.79813 1.40079C7.85608 1.35683 7.92683 1.33304 7.99957 1.33304C8.0723 1.33304 8.14305 1.35683 8.201 1.40079C8.25895 1.44475 8.30093 1.50647 8.32054 1.57651L9.37443 5.66612C9.43395 5.89681 9.55419 6.10734 9.72265 6.2758C9.89112 6.44427 10.1016 6.56451 10.3323 6.62403L14.4219 7.67792C14.4923 7.69732 14.5543 7.73926 14.5985 7.7973C14.6427 7.85534 14.6666 7.92627 14.6666 7.99923C14.6666 8.07218 14.6427 8.14311 14.5985 8.20115C14.5543 8.25919 14.4923 8.30113 14.4219 8.32053L10.3323 9.37442C10.1016 9.43394 9.89112 9.55418 9.72265 9.72265C9.55419 9.89111 9.43395 10.1016 9.37443 10.3323L8.31987 14.4219C8.30027 14.492 8.25829 14.5537 8.20033 14.5977C8.14238 14.6416 8.07164 14.6654 7.9989 14.6654C7.92616 14.6654 7.85542 14.6416 7.79747 14.5977C7.73951 14.5537 7.69753 14.492 7.67793 14.4219L6.62403 10.3323Z" stroke="white" strokeWidth="1.3332" strokeLinecap="round" strokeLinejoin="round"/>
<path d="M13.332 1.9998V4.66621" stroke="white" strokeWidth="1.3332" strokeLinecap="round" strokeLinejoin="round"/>
<path d="M14.6652 3.33301H11.9988" stroke="white" strokeWidth="1.3332" strokeLinecap="round" strokeLinejoin="round"/>
<path d="M2.66638 11.3322V12.6654" stroke="white" strokeWidth="1.3332" strokeLinecap="round" strokeLinejoin="round"/>
<path d="M3.33296 11.9988H1.99976" stroke="white" strokeWidth="1.3332" strokeLinecap="round" strokeLinejoin="round"/>
</g>
<defs>
<clipPath id="clip0_5_1166">
<rect width="15.9984" height="15.9984" fill="white"/>
</clipPath>
</defs>
</svg>
