<svg width="12" height="12" viewBox="0 0 12 12" fill="none" xmlns="http://www.w3.org/2000/svg">
<g clip-path="url(#clip0_1_831)">
<path d="M6.28792 1.29203C6.10058 1.10463 5.84647 0.999324 5.58148 0.999268H1.99835C1.73334 0.999268 1.47919 1.10454 1.2918 1.29193C1.10442 1.47931 0.999146 1.73346 0.999146 1.99847V5.58161C0.999202 5.84659 1.10451 6.1007 1.29191 6.28804L5.64044 10.6366C5.86751 10.8622 6.17463 10.9889 6.49475 10.9889C6.81487 10.9889 7.122 10.8622 7.34907 10.6366L10.6364 7.34919C10.8621 7.12212 10.9887 6.815 10.9887 6.49488C10.9887 6.17475 10.8621 5.86763 10.6364 5.64056L6.28792 1.29203Z" stroke="#155DFC" stroke-width="0.999201" stroke-linecap="round" stroke-linejoin="round"/>
<path d="M3.74699 3.99692C3.88495 3.99692 3.99679 3.88508 3.99679 3.74711C3.99679 3.60915 3.88495 3.49731 3.74699 3.49731C3.60903 3.49731 3.49719 3.60915 3.49719 3.74711C3.49719 3.88508 3.60903 3.99692 3.74699 3.99692Z" fill="#155DFC" stroke="#155DFC" stroke-width="0.999201" stroke-linecap="round" stroke-linejoin="round"/>
</g>
<defs>
<clipPath id="clip0_1_831">
<rect width="11.9904" height="11.9904" fill="white"/>
</clipPath>
</defs>
</svg>
